M48
; DRILL file KiCad 10.0.4 date 2026-07-24T20:06:11
; FORMAT={-:-/ absolute / metric / decimal}
; #@! TF.CreationDate,2026-07-24T20:06:11+10:00
; #@! TF.GenerationSoftware,Kicad,Pcbnew,10.0.4
; #@! TF.FileFunction,Plated,1,2,PTH
FMAT,2
METRIC
; #@! TA.AperFunction,Plated,PTH,ViaDrill
T1C0.300
; #@! TA.AperFunction,Plated,PTH,ComponentDrill
T2C0.800
; #@! TA.AperFunction,Plated,PTH,ComponentDrill
T3C1.000
; #@! TA.AperFunction,Plated,PTH,ComponentDrill
T4C1.300
%
G90
G05
T1
X34.5Y-73.0
X34.5Y-74.0
X34.5Y-75.0
X34.5Y-76.0
X34.5Y-77.0
X34.5Y-93.5
X34.5Y-98.5
X34.5Y-103.5
X34.5Y-108.5
X35.5Y-80.0
X35.5Y-85.0
X39.5Y-93.5
X39.5Y-98.5
X39.5Y-103.5
X39.5Y-108.5
X40.5Y-75.0
X40.5Y-80.0
X40.5Y-85.0
X44.0Y-108.5
X44.5Y-93.5
X44.5Y-98.5
X44.5Y-103.5
X45.5Y-75.0
X45.5Y-80.0
X45.5Y-85.0
X49.0Y-73.0
X49.0Y-74.0
X49.0Y-75.0
X49.0Y-76.0
X49.0Y-77.0
X50.5Y-80.0
X55.5Y-80.0
X55.5Y-95.0
X55.5Y-100.0
X55.5Y-105.0
X55.5Y-110.0
X60.5Y-80.0
X60.5Y-95.0
X60.5Y-100.0
X60.5Y-105.0
X60.5Y-110.0
X61.0Y-96.0
X61.5Y-94.5
X62.0Y-95.5
X62.0Y-96.5
X62.5Y-114.0
X63.5Y-114.0
X64.5Y-114.0
X65.5Y-80.0
X65.5Y-111.5
X65.5Y-112.5
X65.5Y-113.5
X71.5Y-106.0
X71.5Y-107.0
X71.5Y-108.0
X76.0Y-106.0
X76.0Y-107.0
X76.0Y-108.0
T2
X71.22Y-93.0
X71.22Y-98.0
T3
X32.1Y-91.57
X32.1Y-94.11
X32.1Y-96.65
X32.1Y-99.19
X32.1Y-101.73
X32.1Y-104.27
X32.1Y-106.81
X32.1Y-109.35
X32.1Y-111.89
X32.548Y-73.896
X32.548Y-76.436
X32.548Y-84.564
X32.548Y-87.104
X47.34Y-91.57
X47.34Y-94.11
X47.34Y-96.65
X47.34Y-99.19
X47.34Y-101.73
X47.34Y-104.27
X47.34Y-106.81
X47.34Y-109.35
X47.34Y-111.89
X51.02Y-94.38
X51.02Y-96.92
X51.02Y-99.46
X51.02Y-102.0
X51.02Y-104.54
X51.02Y-107.08
X51.02Y-109.62
X51.02Y-112.16
X51.09Y-73.896
X51.09Y-76.436
X51.09Y-84.564
X51.09Y-87.104
X63.72Y-94.38
X63.72Y-96.92
X63.72Y-99.46
X63.72Y-102.0
X63.72Y-104.54
X63.72Y-107.08
X63.72Y-109.62
X63.72Y-112.16
T4
X56.76Y-83.747
X61.84Y-83.747
X66.92Y-83.747
X68.675Y-107.172
X72.0Y-83.747
X73.755Y-107.172
M30
