%TF.GenerationSoftware,KiCad,Pcbnew,10.0.4*%
%TF.CreationDate,2026-07-24T20:05:47+10:00*%
%TF.ProjectId,kicad,6b696361-642e-46b6-9963-61645f706362,rev?*%
%TF.SameCoordinates,Original*%
%TF.FileFunction,Copper,L2,Bot*%
%TF.FilePolarity,Positive*%
%FSLAX46Y46*%
G04 Gerber Fmt 4.6, Leading zero omitted, Abs format (unit mm)*
G04 Created by KiCad (PCBNEW 10.0.4) date 2026-07-24 20:05:47*
%MOMM*%
%LPD*%
G01*
G04 APERTURE LIST*
G04 Aperture macros list*
%AMRoundRect*
0 Rectangle with rounded corners*
0 $1 Rounding radius*
0 $2 $3 $4 $5 $6 $7 $8 $9 X,Y pos of 4 corners*
0 Add a 4 corners polygon primitive as box body*
4,1,4,$2,$3,$4,$5,$6,$7,$8,$9,$2,$3,0*
0 Add four circle primitives for the rounded corners*
1,1,$1+$1,$2,$3*
1,1,$1+$1,$4,$5*
1,1,$1+$1,$6,$7*
1,1,$1+$1,$8,$9*
0 Add four rect primitives between the rounded corners*
20,1,$1+$1,$2,$3,$4,$5,0*
20,1,$1+$1,$4,$5,$6,$7,0*
20,1,$1+$1,$6,$7,$8,$9,0*
20,1,$1+$1,$8,$9,$2,$3,0*%
%AMOutline5P*
0 Free polygon, 5 corners , with rotation*
0 The origin of the aperture is its center*
0 number of corners: always 5*
0 $1 to $10 corner X, Y*
0 $11 Rotation angle, in degrees counterclockwise*
0 create outline with 5 corners*
4,1,5,$1,$2,$3,$4,$5,$6,$7,$8,$9,$10,$1,$2,$11*%
%AMOutline6P*
0 Free polygon, 6 corners , with rotation*
0 The origin of the aperture is its center*
0 number of corners: always 6*
0 $1 to $12 corner X, Y*
0 $13 Rotation angle, in degrees counterclockwise*
0 create outline with 6 corners*
4,1,6,$1,$2,$3,$4,$5,$6,$7,$8,$9,$10,$11,$12,$1,$2,$13*%
%AMOutline7P*
0 Free polygon, 7 corners , with rotation*
0 The origin of the aperture is its center*
0 number of corners: always 7*
0 $1 to $14 corner X, Y*
0 $15 Rotation angle, in degrees counterclockwise*
0 create outline with 7 corners*
4,1,7,$1,$2,$3,$4,$5,$6,$7,$8,$9,$10,$11,$12,$13,$14,$1,$2,$15*%
%AMOutline8P*
0 Free polygon, 8 corners , with rotation*
0 The origin of the aperture is its center*
0 number of corners: always 8*
0 $1 to $16 corner X, Y*
0 $17 Rotation angle, in degrees counterclockwise*
0 create outline with 8 corners*
4,1,8,$1,$2,$3,$4,$5,$6,$7,$8,$9,$10,$11,$12,$13,$14,$15,$16,$1,$2,$17*%
G04 Aperture macros list end*
%TA.AperFunction,ComponentPad*%
%ADD10Outline5P,-0.900000X0.540000X-0.540000X0.900000X0.900000X0.900000X0.900000X-0.900000X-0.900000X-0.900000X0.000000*%
%TD*%
%TA.AperFunction,ComponentPad*%
%ADD11C,1.800000*%
%TD*%
%TA.AperFunction,ComponentPad*%
%ADD12C,1.600000*%
%TD*%
%TA.AperFunction,ComponentPad*%
%ADD13RoundRect,0.250000X1.050000X1.050000X-1.050000X1.050000X-1.050000X-1.050000X1.050000X-1.050000X0*%
%TD*%
%TA.AperFunction,ComponentPad*%
%ADD14C,2.600000*%
%TD*%
%TA.AperFunction,ComponentPad*%
%ADD15RoundRect,0.250000X-1.050000X-1.050000X1.050000X-1.050000X1.050000X1.050000X-1.050000X1.050000X0*%
%TD*%
%TA.AperFunction,ComponentPad*%
%ADD16Outline5P,-0.900000X0.540000X-0.540000X0.900000X0.900000X0.900000X0.900000X-0.900000X-0.900000X-0.900000X180.000000*%
%TD*%
%TA.AperFunction,ViaPad*%
%ADD17C,0.700000*%
%TD*%
%TA.AperFunction,Conductor*%
%ADD18C,0.200000*%
%TD*%
%TA.AperFunction,Conductor*%
%ADD19C,1.200000*%
%TD*%
G04 APERTURE END LIST*
D10*
%TO.P,ESP32-C6-Super-Mini1,1,5V_1*%
%TO.N,+5V*%
X47340000Y-111890000D03*
D11*
%TO.P,ESP32-C6-Super-Mini1,2,GND_2*%
%TO.N,GND*%
X47340000Y-109350000D03*
%TO.P,ESP32-C6-Super-Mini1,3,3V3_3*%
%TO.N,+3.3V*%
X47340000Y-106810000D03*
%TO.P,ESP32-C6-Super-Mini1,4,GP0_4*%
%TO.N,/MOT_DIR*%
X47340000Y-104270000D03*
%TO.P,ESP32-C6-Super-Mini1,5,GP1_5*%
%TO.N,/MOT_STEP*%
X47340000Y-101730000D03*
%TO.P,ESP32-C6-Super-Mini1,6,GP2_6*%
%TO.N,/MOT_UART*%
X47340000Y-99190000D03*
%TO.P,ESP32-C6-Super-Mini1,7,GP3_7*%
%TO.N,/MOT_DIAG*%
X47340000Y-96650000D03*
%TO.P,ESP32-C6-Super-Mini1,8,GP4_8*%
%TO.N,/MOT_EN*%
X47340000Y-94110000D03*
%TO.P,ESP32-C6-Super-Mini1,9,GP5_9*%
%TO.N,unconnected-(ESP32-C6-Super-Mini1-GP5-Pad9)*%
X47340000Y-91570000D03*
%TO.P,ESP32-C6-Super-Mini1,10,GP22_10*%
%TO.N,unconnected-(ESP32-C6-Super-Mini1-GP22-Pad10)*%
X32100000Y-91570000D03*
%TO.P,ESP32-C6-Super-Mini1,11,GP21_11*%
%TO.N,unconnected-(ESP32-C6-Super-Mini1-GP21-Pad11)*%
X32100000Y-94110000D03*
%TO.P,ESP32-C6-Super-Mini1,12,GP20_12*%
%TO.N,unconnected-(ESP32-C6-Super-Mini1-GP20-Pad12)*%
X32100000Y-96650000D03*
%TO.P,ESP32-C6-Super-Mini1,13,GP19_13*%
%TO.N,unconnected-(ESP32-C6-Super-Mini1-GP19-Pad13)*%
X32100000Y-99190000D03*
%TO.P,ESP32-C6-Super-Mini1,14,GP18_14*%
%TO.N,unconnected-(ESP32-C6-Super-Mini1-GP18-Pad14)*%
X32100000Y-101730000D03*
%TO.P,ESP32-C6-Super-Mini1,15,GP15_15*%
%TO.N,unconnected-(ESP32-C6-Super-Mini1-GP15-Pad15)*%
X32100000Y-104270000D03*
%TO.P,ESP32-C6-Super-Mini1,16,GP14_16*%
%TO.N,unconnected-(ESP32-C6-Super-Mini1-GP14-Pad16)*%
X32100000Y-106810000D03*
%TO.P,ESP32-C6-Super-Mini1,17,RX_17*%
%TO.N,unconnected-(ESP32-C6-Super-Mini1-RX-Pad17)*%
X32100000Y-109350000D03*
%TO.P,ESP32-C6-Super-Mini1,18,TX_18*%
%TO.N,unconnected-(ESP32-C6-Super-Mini1-TX-Pad18)*%
X32100000Y-111890000D03*
%TD*%
D12*
%TO.P,C1,1*%
%TO.N,+12V*%
X71220000Y-93000000D03*
%TO.P,C1,2*%
%TO.N,GND*%
X71220000Y-98000000D03*
%TD*%
D13*
%TO.P,M1,1*%
%TO.N,/M1A*%
X72000000Y-83747000D03*
D14*
%TO.P,M1,2,-_2*%
%TO.N,/M1B*%
X66920000Y-83747000D03*
%TO.P,M1,3*%
%TO.N,/M2A*%
X61840000Y-83747000D03*
%TO.P,M1,4*%
%TO.N,/M2B*%
X56760000Y-83747000D03*
%TD*%
D10*
%TO.P,MP1584EN1,1,IN+_1*%
%TO.N,+12V*%
X32548000Y-84564000D03*
X32548000Y-87104000D03*
D11*
%TO.P,MP1584EN1,2,IN-_2*%
%TO.N,GND*%
X32548000Y-73896000D03*
X32548000Y-76436000D03*
%TO.P,MP1584EN1,3,OUT+_3*%
%TO.N,+5V*%
X51090000Y-84564000D03*
X51090000Y-87104000D03*
%TO.P,MP1584EN1,4,OUT-_4*%
%TO.N,GND*%
X51090000Y-73896000D03*
X51090000Y-76436000D03*
%TD*%
D15*
%TO.P,J1,1*%
%TO.N,+12V*%
X68675000Y-107172500D03*
D14*
%TO.P,J1,2*%
%TO.N,GND*%
X73755000Y-107172500D03*
%TD*%
D16*
%TO.P,TMC2209,1,EN_1*%
%TO.N,/MOT_EN*%
X51020000Y-94380000D03*
D11*
%TO.P,TMC2209,2,MS1_2*%
%TO.N,unconnected-(TMC2209-MS1-Pad2)*%
X51020000Y-96920000D03*
%TO.P,TMC2209,3,MS2_3*%
%TO.N,unconnected-(TMC2209-MS2-Pad3)*%
X51020000Y-99460000D03*
%TO.P,TMC2209,4,SPREAD_4*%
%TO.N,/MOT_DIAG*%
X51020000Y-102000000D03*
%TO.P,TMC2209,5,PDN_UART1_5*%
%TO.N,/MOT_UART*%
X51020000Y-104540000D03*
%TO.P,TMC2209,6,PDN_UART2_6*%
%TO.N,unconnected-(TMC2209-PDN_UART2-Pad6)*%
X51020000Y-107080000D03*
%TO.P,TMC2209,7,STEP_7*%
%TO.N,/MOT_STEP*%
X51020000Y-109620000D03*
%TO.P,TMC2209,8,DIR_8*%
%TO.N,/MOT_DIR*%
X51020000Y-112160000D03*
%TO.P,TMC2209,9,GND_9*%
%TO.N,GND*%
X63720000Y-112160000D03*
%TO.P,TMC2209,10,VIO_10*%
%TO.N,+3.3V*%
X63720000Y-109620000D03*
%TO.P,TMC2209,11,M1B_11*%
%TO.N,/M1B*%
X63720000Y-107080000D03*
%TO.P,TMC2209,12,M1A_12*%
%TO.N,/M1A*%
X63720000Y-104540000D03*
%TO.P,TMC2209,13,M2A_13*%
%TO.N,/M2A*%
X63720000Y-102000000D03*
%TO.P,TMC2209,14,M2B_14*%
%TO.N,/M2B*%
X63720000Y-99460000D03*
%TO.P,TMC2209,15,GND_15*%
%TO.N,GND*%
X63720000Y-96920000D03*
%TO.P,TMC2209,16,VM_16*%
%TO.N,+12V*%
X63720000Y-94380000D03*
%TD*%
D17*
%TO.N,GND*%
X63500000Y-114000000D03*
X64500000Y-114000000D03*
X62500000Y-114000000D03*
X44500000Y-103500000D03*
X44000000Y-108500000D03*
X34500000Y-75000000D03*
X35500000Y-85000000D03*
X61500000Y-94500000D03*
X44500000Y-98500000D03*
X45500000Y-80000000D03*
X35500000Y-80000000D03*
X39500000Y-108500000D03*
X55500000Y-80000000D03*
X45500000Y-75000000D03*
X34500000Y-76000000D03*
X49000000Y-74000000D03*
X39500000Y-103500000D03*
X34500000Y-103500000D03*
X76000000Y-108000000D03*
X65500000Y-113500000D03*
X65500000Y-112500000D03*
X55500000Y-110000000D03*
X61000000Y-96000000D03*
X71500000Y-107000000D03*
X49000000Y-75000000D03*
X34500000Y-93500000D03*
X34500000Y-77000000D03*
X39500000Y-93500000D03*
X49000000Y-73000000D03*
X40500000Y-75000000D03*
X62000000Y-96500000D03*
X55500000Y-95000000D03*
X71500000Y-106000000D03*
X34500000Y-74000000D03*
X76000000Y-107000000D03*
X39500000Y-98500000D03*
X34500000Y-108500000D03*
X62000000Y-95500000D03*
X60500000Y-105000000D03*
X34500000Y-98500000D03*
X40500000Y-80000000D03*
X40500000Y-85000000D03*
X50500000Y-80000000D03*
X60500000Y-100000000D03*
X65500000Y-80000000D03*
X34500000Y-73000000D03*
X65500000Y-111500000D03*
X76000000Y-106000000D03*
X71500000Y-108000000D03*
X55500000Y-100000000D03*
X60500000Y-95000000D03*
X49000000Y-77000000D03*
X60500000Y-110000000D03*
X55500000Y-105000000D03*
X49000000Y-76000000D03*
X44500000Y-93500000D03*
X45500000Y-85000000D03*
X60500000Y-80000000D03*
%TD*%
%TO.N,/MOT_DIR*%
D18*
X49000000Y-110140000D02*
X51020000Y-112160000D01*
X49000000Y-105930000D02*
X49000000Y-110140000D01*
X47340000Y-104270000D02*
X49000000Y-105930000D01*
%TO.N,/MOT_STEP*%
X49640000Y-104030000D02*
X49640000Y-108240000D01*
X49640000Y-108240000D02*
X51020000Y-109620000D01*
X47340000Y-101730000D02*
X49640000Y-104030000D01*
%TO.N,/MOT_UART*%
X48720000Y-102240000D02*
X51020000Y-104540000D01*
X47340000Y-99190000D02*
X48720000Y-100570000D01*
X48720000Y-100570000D02*
X48720000Y-102240000D01*
%TO.N,/MOT_DIAG*%
X47340000Y-96650000D02*
X48720000Y-98030000D01*
X48720000Y-98030000D02*
X48720000Y-99700000D01*
X48720000Y-99700000D02*
X51020000Y-102000000D01*
%TO.N,/MOT_EN*%
X47340000Y-94110000D02*
X50750000Y-94110000D01*
X50750000Y-94110000D02*
X51020000Y-94380000D01*
%TO.N,+5V*%
D19*
X49490000Y-114040000D02*
X51798722Y-114040000D01*
X51090000Y-87104000D02*
X51090000Y-84564000D01*
X52900000Y-112938722D02*
X52900000Y-88914000D01*
X47340000Y-111890000D02*
X49490000Y-114040000D01*
X51798722Y-114040000D02*
X52900000Y-112938722D01*
X52900000Y-88914000D02*
X51090000Y-87104000D01*
%TO.N,GND*%
X32548000Y-76436000D02*
X32548000Y-73896000D01*
X51090000Y-76436000D02*
X51090000Y-73896000D01*
%TO.N,+12V*%
X32548000Y-87104000D02*
X32548000Y-84564000D01*
%TO.N,/M1A*%
X69200000Y-86547000D02*
X72000000Y-83747000D01*
X64992792Y-104540000D02*
X69200000Y-100332792D01*
X69200000Y-100332792D02*
X69200000Y-86547000D01*
X63720000Y-104540000D02*
X64992792Y-104540000D01*
%TO.N,/M1B*%
X74280000Y-82180590D02*
X73566410Y-81467000D01*
X69200000Y-81467000D02*
X66920000Y-83747000D01*
X64921090Y-107080000D02*
X70501090Y-101500000D01*
X73000000Y-101500000D02*
X74280000Y-100220000D01*
X67500000Y-84327000D02*
X66920000Y-83747000D01*
X70501090Y-101500000D02*
X73000000Y-101500000D01*
X63720000Y-107080000D02*
X64921090Y-107080000D01*
X74280000Y-100220000D02*
X74280000Y-82180590D01*
X73566410Y-81467000D02*
X69200000Y-81467000D01*
%TO.N,/M2A*%
X67500000Y-89407000D02*
X61840000Y-83747000D01*
X64992792Y-102000000D02*
X67500000Y-99492792D01*
X63720000Y-102000000D02*
X64992792Y-102000000D01*
X67500000Y-99492792D02*
X67500000Y-89407000D01*
%TO.N,/M2B*%
X56760000Y-93772792D02*
X56760000Y-83747000D01*
X62447208Y-99460000D02*
X56760000Y-93772792D01*
X63720000Y-99460000D02*
X62447208Y-99460000D01*
%TD*%
%TA.AperFunction,Conductor*%
%TO.N,GND*%
G36*
X73122539Y-85567184D02*
G01*
X73168294Y-85619988D01*
X73179500Y-85671499D01*
X73179500Y-99712796D01*
X73159815Y-99779835D01*
X73143181Y-99800477D01*
X72580477Y-100363181D01*
X72519154Y-100396666D01*
X72492796Y-100399500D01*
X70424500Y-100399500D01*
X70357461Y-100379815D01*
X70311706Y-100327011D01*
X70300500Y-100275500D01*
X70300500Y-99182196D01*
X70320185Y-99115157D01*
X70372989Y-99069402D01*
X70442147Y-99059458D01*
X70497387Y-99081879D01*
X70538649Y-99111859D01*
X70720968Y-99204755D01*
X70915582Y-99267990D01*
X71117683Y-99300000D01*
X71322317Y-99300000D01*
X71524417Y-99267990D01*
X71719031Y-99204755D01*
X71901349Y-99111859D01*
X71945921Y-99079474D01*
X71266447Y-98400000D01*
X71272661Y-98400000D01*
X71374394Y-98372741D01*
X71465606Y-98320080D01*
X71540080Y-98245606D01*
X71592741Y-98154394D01*
X71620000Y-98052661D01*
X71620000Y-98046447D01*
X72299474Y-98725921D01*
X72331859Y-98681349D01*
X72424755Y-98499031D01*
X72487990Y-98304417D01*
X72520000Y-98102317D01*
X72520000Y-97897682D01*
X72487990Y-97695582D01*
X72424755Y-97500968D01*
X72331859Y-97318650D01*
X72299474Y-97274077D01*
X72299474Y-97274076D01*
X71620000Y-97953551D01*
X71620000Y-97947339D01*
X71592741Y-97845606D01*
X71540080Y-97754394D01*
X71465606Y-97679920D01*
X71374394Y-97627259D01*
X71272661Y-97600000D01*
X71266446Y-97600000D01*
X71945922Y-96920524D01*
X71945921Y-96920523D01*
X71901359Y-96888147D01*
X71901350Y-96888141D01*
X71719031Y-96795244D01*
X71524417Y-96732009D01*
X71322317Y-96700000D01*
X71117683Y-96700000D01*
X70915582Y-96732009D01*
X70720968Y-96795244D01*
X70538650Y-96888140D01*
X70497386Y-96918121D01*
X70431579Y-96941601D01*
X70363525Y-96925776D01*
X70314830Y-96875670D01*
X70300500Y-96817803D01*
X70300500Y-94182814D01*
X70320185Y-94115775D01*
X70372989Y-94070020D01*
X70442147Y-94060076D01*
X70497385Y-94082496D01*
X70533094Y-94108439D01*
X70538390Y-94112287D01*
X70654607Y-94171503D01*
X70720776Y-94205218D01*
X70720778Y-94205218D01*
X70720781Y-94205220D01*
X70825137Y-94239127D01*
X70915465Y-94268477D01*
X71016557Y-94284488D01*
X71117648Y-94300500D01*
X71117649Y-94300500D01*
X71322351Y-94300500D01*
X71322352Y-94300500D01*
X71524534Y-94268477D01*
X71719219Y-94205220D01*
X71901610Y-94112287D01*
X72056467Y-93999778D01*
X72067213Y-93991971D01*
X72067215Y-93991968D01*
X72067219Y-93991966D01*
X72211966Y-93847219D01*
X72211968Y-93847215D01*
X72211971Y-93847213D01*
X72264732Y-93774590D01*
X72332287Y-93681610D01*
X72425220Y-93499219D01*
X72488477Y-93304534D01*
X72520500Y-93102352D01*
X72520500Y-92897648D01*
X72488477Y-92695466D01*
X72469885Y-92638247D01*
X72425218Y-92500776D01*
X72391503Y-92434607D01*
X72332287Y-92318390D01*
X72321848Y-92304022D01*
X72211971Y-92152786D01*
X72067213Y-92008028D01*
X71901613Y-91887715D01*
X71901612Y-91887714D01*
X71901610Y-91887713D01*
X71844653Y-91858691D01*
X71719223Y-91794781D01*
X71524534Y-91731522D01*
X71349995Y-91703878D01*
X71322352Y-91699500D01*
X71117648Y-91699500D01*
X71093329Y-91703351D01*
X70915465Y-91731522D01*
X70720776Y-91794781D01*
X70538386Y-91887714D01*
X70497384Y-91917504D01*
X70431577Y-91940983D01*
X70363523Y-91925156D01*
X70314829Y-91875050D01*
X70300500Y-91817185D01*
X70300500Y-87054203D01*
X70320185Y-86987164D01*
X70336814Y-86966527D01*
X71719523Y-85583817D01*
X71780846Y-85550333D01*
X71807204Y-85547499D01*
X73055500Y-85547499D01*
X73122539Y-85567184D01*
G37*
%TD.AperFunction*%
%TA.AperFunction,Conductor*%
G36*
X52504418Y-69974816D02*
G01*
X52704561Y-69989130D01*
X52722063Y-69991647D01*
X52913795Y-70033355D01*
X52930760Y-70038336D01*
X53114611Y-70106909D01*
X53130694Y-70114253D01*
X53247495Y-70178032D01*
X53302908Y-70208290D01*
X53317791Y-70217855D01*
X53474864Y-70335438D01*
X53488235Y-70347024D01*
X53626975Y-70485764D01*
X53638561Y-70499135D01*
X53756144Y-70656208D01*
X53765709Y-70671091D01*
X53859743Y-70843300D01*
X53867093Y-70859394D01*
X53935661Y-71043234D01*
X53940645Y-71060209D01*
X53982351Y-71251931D01*
X53984869Y-71269442D01*
X53999184Y-71469580D01*
X53999500Y-71478427D01*
X53999500Y-75434108D01*
X53999500Y-75500000D01*
X53999500Y-75651252D01*
X54035963Y-75951551D01*
X54091046Y-76175034D01*
X54108358Y-76245271D01*
X54180693Y-76436000D01*
X54215627Y-76528113D01*
X54356207Y-76795968D01*
X54528050Y-77044924D01*
X54528052Y-77044926D01*
X54528054Y-77044929D01*
X54728646Y-77271351D01*
X54728648Y-77271353D01*
X54824429Y-77356207D01*
X54955076Y-77471950D01*
X55204032Y-77643793D01*
X55471887Y-77784373D01*
X55608016Y-77836000D01*
X55754728Y-77891641D01*
X55754730Y-77891641D01*
X55754734Y-77891643D01*
X56048449Y-77964037D01*
X56299661Y-77994539D01*
X56348746Y-78000500D01*
X56348748Y-78000500D01*
X56434108Y-78000500D01*
X75434108Y-78000500D01*
X75495572Y-78000500D01*
X75504418Y-78000816D01*
X75704561Y-78015130D01*
X75722063Y-78017647D01*
X75913795Y-78059355D01*
X75930760Y-78064336D01*
X76114611Y-78132909D01*
X76130694Y-78140253D01*
X76247495Y-78204032D01*
X76302908Y-78234290D01*
X76317791Y-78243855D01*
X76474864Y-78361438D01*
X76488235Y-78373024D01*
X76626975Y-78511764D01*
X76638561Y-78525135D01*
X76756144Y-78682208D01*
X76765709Y-78697091D01*
X76859743Y-78869300D01*
X76867093Y-78885394D01*
X76935661Y-79069234D01*
X76940645Y-79086209D01*
X76982351Y-79277931D01*
X76984869Y-79295442D01*
X76999184Y-79495580D01*
X76999500Y-79504427D01*
X76999500Y-111495572D01*
X76999184Y-111504419D01*
X76984869Y-111704557D01*
X76982351Y-111722068D01*
X76940645Y-111913790D01*
X76935661Y-111930765D01*
X76867093Y-112114605D01*
X76859743Y-112130699D01*
X76765709Y-112302908D01*
X76756144Y-112317791D01*
X76638561Y-112474864D01*
X76626975Y-112488235D01*
X76488235Y-112626975D01*
X76474864Y-112638561D01*
X76317791Y-112756144D01*
X76302908Y-112765709D01*
X76130699Y-112859743D01*
X76114605Y-112867093D01*
X75930765Y-112935661D01*
X75913790Y-112940645D01*
X75722068Y-112982351D01*
X75704557Y-112984869D01*
X75523779Y-112997799D01*
X75504417Y-112999184D01*
X75495572Y-112999500D01*
X67892682Y-112999500D01*
X67680232Y-113030045D01*
X67680228Y-113030046D01*
X67474298Y-113090511D01*
X67474286Y-113090516D01*
X67279061Y-113179671D01*
X67279045Y-113179680D01*
X67098487Y-113295718D01*
X66936275Y-113436275D01*
X66795718Y-113598487D01*
X66679680Y-113779045D01*
X66679671Y-113779061D01*
X66590516Y-113974286D01*
X66590511Y-113974298D01*
X66530046Y-114180228D01*
X66530045Y-114180232D01*
X66499500Y-114392682D01*
X66499500Y-114995018D01*
X66498722Y-115008885D01*
X66488568Y-115099115D01*
X66482405Y-115126154D01*
X66454758Y-115205271D01*
X66442740Y-115230262D01*
X66398204Y-115301253D01*
X66380929Y-115322952D01*
X66321730Y-115382266D01*
X66300070Y-115399580D01*
X66229163Y-115444260D01*
X66204194Y-115456328D01*
X66125138Y-115484129D01*
X66098110Y-115490346D01*
X66007895Y-115500678D01*
X65994032Y-115501483D01*
X65935256Y-115501599D01*
X65935094Y-115501600D01*
X65935093Y-115501600D01*
X65661459Y-115502139D01*
X31507394Y-115569537D01*
X31498536Y-115569238D01*
X31298118Y-115555284D01*
X31280579Y-115552794D01*
X31088544Y-115511362D01*
X31071540Y-115506399D01*
X30887368Y-115438026D01*
X30871244Y-115430690D01*
X30698691Y-115336770D01*
X30683780Y-115327215D01*
X30526370Y-115209666D01*
X30512973Y-115198082D01*
X30373915Y-115059298D01*
X30362303Y-115045921D01*
X30244442Y-114888741D01*
X30234865Y-114873862D01*
X30140598Y-114701482D01*
X30133234Y-114685377D01*
X30064499Y-114501342D01*
X30059502Y-114484348D01*
X30048559Y-114434108D01*
X30017688Y-114292384D01*
X30015167Y-114274866D01*
X30000817Y-114074475D01*
X30000500Y-114065618D01*
X30000500Y-91459778D01*
X30699500Y-91459778D01*
X30699500Y-91680221D01*
X30733985Y-91897952D01*
X30802103Y-92107603D01*
X30802104Y-92107606D01*
X30902187Y-92304025D01*
X31031752Y-92482358D01*
X31031756Y-92482363D01*
X31187636Y-92638243D01*
X31187641Y-92638247D01*
X31327254Y-92739682D01*
X31369920Y-92795012D01*
X31375899Y-92864625D01*
X31343293Y-92926420D01*
X31327254Y-92940318D01*
X31187641Y-93041752D01*
X31187636Y-93041756D01*
X31031756Y-93197636D01*
X31031752Y-93197641D01*
X30902187Y-93375974D01*
X30802104Y-93572393D01*
X30802103Y-93572396D01*
X30733985Y-93782047D01*
X30699500Y-93999778D01*
X30699500Y-94220221D01*
X30733985Y-94437952D01*
X30802103Y-94647603D01*
X30802104Y-94647606D01*
X30868649Y-94778204D01*
X30897333Y-94834500D01*
X30902187Y-94844025D01*
X31031752Y-95022358D01*
X31031756Y-95022363D01*
X31187636Y-95178243D01*
X31187641Y-95178247D01*
X31327254Y-95279682D01*
X31369920Y-95335012D01*
X31375899Y-95404625D01*
X31343293Y-95466420D01*
X31327254Y-95480318D01*
X31187641Y-95581752D01*
X31187636Y-95581756D01*
X31031756Y-95737636D01*
X31031752Y-95737641D01*
X30902187Y-95915974D01*
X30802104Y-96112393D01*
X30802103Y-96112396D01*
X30733985Y-96322047D01*
X30699500Y-96539778D01*
X30699500Y-96760221D01*
X30733985Y-96977952D01*
X30802103Y-97187603D01*
X30802104Y-97187606D01*
X30902187Y-97384025D01*
X31031752Y-97562358D01*
X31031756Y-97562363D01*
X31187636Y-97718243D01*
X31187641Y-97718247D01*
X31327254Y-97819682D01*
X31369920Y-97875012D01*
X31375899Y-97944625D01*
X31343293Y-98006420D01*
X31327254Y-98020318D01*
X31187641Y-98121752D01*
X31187636Y-98121756D01*
X31031756Y-98277636D01*
X31031752Y-98277641D01*
X30902187Y-98455974D01*
X30802104Y-98652393D01*
X30802103Y-98652396D01*
X30733985Y-98862047D01*
X30699500Y-99079778D01*
X30699500Y-99300221D01*
X30733985Y-99517952D01*
X30802103Y-99727603D01*
X30802104Y-99727606D01*
X30902187Y-99924025D01*
X31031752Y-100102358D01*
X31031756Y-100102363D01*
X31187636Y-100258243D01*
X31187641Y-100258247D01*
X31327254Y-100359682D01*
X31369920Y-100415012D01*
X31375899Y-100484625D01*
X31343293Y-100546420D01*
X31327254Y-100560318D01*
X31187641Y-100661752D01*
X31187636Y-100661756D01*
X31031756Y-100817636D01*
X31031752Y-100817641D01*
X30902187Y-100995974D01*
X30802104Y-101192393D01*
X30802103Y-101192396D01*
X30733985Y-101402047D01*
X30699500Y-101619778D01*
X30699500Y-101840221D01*
X30733985Y-102057952D01*
X30802103Y-102267603D01*
X30802104Y-102267606D01*
X30838693Y-102339414D01*
X30890572Y-102441231D01*
X30902187Y-102464025D01*
X31031752Y-102642358D01*
X31031756Y-102642363D01*
X31187636Y-102798243D01*
X31187641Y-102798247D01*
X31327254Y-102899682D01*
X31369920Y-102955012D01*
X31375899Y-103024625D01*
X31343293Y-103086420D01*
X31327254Y-103100318D01*
X31187641Y-103201752D01*
X31187636Y-103201756D01*
X31031756Y-103357636D01*
X31031752Y-103357641D01*
X30902187Y-103535974D01*
X30802104Y-103732393D01*
X30802103Y-103732396D01*
X30733985Y-103942047D01*
X30699500Y-104159778D01*
X30699500Y-104380221D01*
X30733985Y-104597952D01*
X30802103Y-104807603D01*
X30802104Y-104807606D01*
X30902187Y-105004025D01*
X31031752Y-105182358D01*
X31031756Y-105182363D01*
X31187636Y-105338243D01*
X31187641Y-105338247D01*
X31327254Y-105439682D01*
X31369920Y-105495012D01*
X31375899Y-105564625D01*
X31343293Y-105626420D01*
X31327254Y-105640318D01*
X31187641Y-105741752D01*
X31187636Y-105741756D01*
X31031756Y-105897636D01*
X31031752Y-105897641D01*
X30902187Y-106075974D01*
X30802104Y-106272393D01*
X30802103Y-106272396D01*
X30733985Y-106482047D01*
X30699500Y-106699778D01*
X30699500Y-106920221D01*
X30733985Y-107137952D01*
X30802103Y-107347603D01*
X30802104Y-107347606D01*
X30902187Y-107544025D01*
X31031752Y-107722358D01*
X31031756Y-107722363D01*
X31187636Y-107878243D01*
X31187641Y-107878247D01*
X31327254Y-107979682D01*
X31369920Y-108035012D01*
X31375899Y-108104625D01*
X31343293Y-108166420D01*
X31327254Y-108180318D01*
X31187641Y-108281752D01*
X31187636Y-108281756D01*
X31031756Y-108437636D01*
X31031752Y-108437641D01*
X30902187Y-108615974D01*
X30802104Y-108812393D01*
X30802103Y-108812396D01*
X30733985Y-109022047D01*
X30714216Y-109146865D01*
X30699500Y-109239778D01*
X30699500Y-109460222D01*
X30707349Y-109509778D01*
X30733985Y-109677952D01*
X30802103Y-109887603D01*
X30802104Y-109887606D01*
X30832853Y-109947952D01*
X30902049Y-110083756D01*
X30902187Y-110084025D01*
X31031752Y-110262358D01*
X31031756Y-110262363D01*
X31187636Y-110418243D01*
X31187641Y-110418247D01*
X31327254Y-110519682D01*
X31369920Y-110575012D01*
X31375899Y-110644625D01*
X31343293Y-110706420D01*
X31327254Y-110720318D01*
X31187641Y-110821752D01*
X31187636Y-110821756D01*
X31031756Y-110977636D01*
X31031752Y-110977641D01*
X30902187Y-111155974D01*
X30802104Y-111352393D01*
X30802103Y-111352396D01*
X30733985Y-111562047D01*
X30699500Y-111779778D01*
X30699500Y-112000221D01*
X30733985Y-112217952D01*
X30802103Y-112427603D01*
X30802104Y-112427606D01*
X30902187Y-112624025D01*
X31031752Y-112802358D01*
X31031756Y-112802363D01*
X31187636Y-112958243D01*
X31187641Y-112958247D01*
X31243987Y-112999184D01*
X31365978Y-113087815D01*
X31494375Y-113153237D01*
X31562393Y-113187895D01*
X31562396Y-113187896D01*
X31588662Y-113196430D01*
X31772049Y-113256015D01*
X31989778Y-113290500D01*
X31989779Y-113290500D01*
X32210221Y-113290500D01*
X32210222Y-113290500D01*
X32427951Y-113256015D01*
X32637606Y-113187895D01*
X32834022Y-113087815D01*
X33012365Y-112958242D01*
X33168242Y-112802365D01*
X33297815Y-112624022D01*
X33397895Y-112427606D01*
X33466015Y-112217951D01*
X33500500Y-112000222D01*
X33500500Y-111779778D01*
X33466015Y-111562049D01*
X33397895Y-111352394D01*
X33397895Y-111352393D01*
X33363237Y-111284375D01*
X33297815Y-111155978D01*
X33251320Y-111091983D01*
X33168247Y-110977641D01*
X33168243Y-110977636D01*
X33012363Y-110821756D01*
X33012358Y-110821752D01*
X32872745Y-110720318D01*
X32830079Y-110664989D01*
X32824100Y-110595375D01*
X32856705Y-110533580D01*
X32872745Y-110519682D01*
X33012358Y-110418247D01*
X33012356Y-110418247D01*
X33012365Y-110418242D01*
X33168242Y-110262365D01*
X33297815Y-110084022D01*
X33397895Y-109887606D01*
X33466015Y-109677951D01*
X33500500Y-109460222D01*
X33500500Y-109239778D01*
X33466015Y-109022049D01*
X33398810Y-108815210D01*
X33397896Y-108812396D01*
X33397895Y-108812393D01*
X33344520Y-108707641D01*
X33297815Y-108615978D01*
X33251155Y-108551756D01*
X33168247Y-108437641D01*
X33168243Y-108437636D01*
X33012363Y-108281756D01*
X33012358Y-108281752D01*
X32872745Y-108180318D01*
X32830079Y-108124989D01*
X32824100Y-108055375D01*
X32856705Y-107993580D01*
X32872745Y-107979682D01*
X33012358Y-107878247D01*
X33012356Y-107878247D01*
X33012365Y-107878242D01*
X33168242Y-107722365D01*
X33297815Y-107544022D01*
X33397895Y-107347606D01*
X33466015Y-107137951D01*
X33500500Y-106920222D01*
X33500500Y-106699778D01*
X33466015Y-106482049D01*
X33397895Y-106272394D01*
X33397895Y-106272393D01*
X33345889Y-106170328D01*
X33297815Y-106075978D01*
X33251155Y-106011756D01*
X33168247Y-105897641D01*
X33168243Y-105897636D01*
X33012363Y-105741756D01*
X33012358Y-105741752D01*
X32872745Y-105640318D01*
X32830079Y-105584989D01*
X32824100Y-105515375D01*
X32856705Y-105453580D01*
X32872745Y-105439682D01*
X33012358Y-105338247D01*
X33012356Y-105338247D01*
X33012365Y-105338242D01*
X33168242Y-105182365D01*
X33297815Y-105004022D01*
X33397895Y-104807606D01*
X33466015Y-104597951D01*
X33500500Y-104380222D01*
X33500500Y-104159778D01*
X33466015Y-103942049D01*
X33397895Y-103732394D01*
X33397895Y-103732393D01*
X33344520Y-103627641D01*
X33297815Y-103535978D01*
X33251155Y-103471756D01*
X33168247Y-103357641D01*
X33168243Y-103357636D01*
X33012363Y-103201756D01*
X33012358Y-103201752D01*
X32872745Y-103100318D01*
X32830079Y-103044989D01*
X32824100Y-102975375D01*
X32856705Y-102913580D01*
X32872745Y-102899682D01*
X33012358Y-102798247D01*
X33012356Y-102798247D01*
X33012365Y-102798242D01*
X33168242Y-102642365D01*
X33297815Y-102464022D01*
X33397895Y-102267606D01*
X33466015Y-102057951D01*
X33500500Y-101840222D01*
X33500500Y-101619778D01*
X33466015Y-101402049D01*
X33397895Y-101192394D01*
X33397895Y-101192393D01*
X33344520Y-101087641D01*
X33297815Y-100995978D01*
X33281260Y-100973192D01*
X33168247Y-100817641D01*
X33168243Y-100817636D01*
X33012363Y-100661756D01*
X33012358Y-100661752D01*
X32872745Y-100560318D01*
X32830079Y-100504989D01*
X32824100Y-100435375D01*
X32856705Y-100373580D01*
X32872745Y-100359682D01*
X33012358Y-100258247D01*
X33012356Y-100258247D01*
X33012365Y-100258242D01*
X33168242Y-100102365D01*
X33297815Y-99924022D01*
X33397895Y-99727606D01*
X33466015Y-99517951D01*
X33500500Y-99300222D01*
X33500500Y-99079778D01*
X33466015Y-98862049D01*
X33397895Y-98652394D01*
X33397895Y-98652393D01*
X33344520Y-98547641D01*
X33297815Y-98455978D01*
X33251155Y-98391756D01*
X33168247Y-98277641D01*
X33168243Y-98277636D01*
X33012363Y-98121756D01*
X33012358Y-98121752D01*
X32872745Y-98020318D01*
X32830079Y-97964989D01*
X32824100Y-97895375D01*
X32856705Y-97833580D01*
X32872745Y-97819682D01*
X33012358Y-97718247D01*
X33012356Y-97718247D01*
X33012365Y-97718242D01*
X33168242Y-97562365D01*
X33297815Y-97384022D01*
X33397895Y-97187606D01*
X33466015Y-96977951D01*
X33500500Y-96760222D01*
X33500500Y-96539778D01*
X33466015Y-96322049D01*
X33397895Y-96112394D01*
X33397895Y-96112393D01*
X33344520Y-96007641D01*
X33297815Y-95915978D01*
X33210263Y-95795472D01*
X33168247Y-95737641D01*
X33168243Y-95737636D01*
X33012363Y-95581756D01*
X33012358Y-95581752D01*
X32872745Y-95480318D01*
X32830079Y-95424989D01*
X32824100Y-95355375D01*
X32856705Y-95293580D01*
X32872745Y-95279682D01*
X33012358Y-95178247D01*
X33012356Y-95178247D01*
X33012365Y-95178242D01*
X33168242Y-95022365D01*
X33297815Y-94844022D01*
X33397895Y-94647606D01*
X33466015Y-94437951D01*
X33500500Y-94220222D01*
X33500500Y-93999778D01*
X33466015Y-93782049D01*
X33397895Y-93572394D01*
X33397895Y-93572393D01*
X33344520Y-93467641D01*
X33297815Y-93375978D01*
X33251155Y-93311756D01*
X33168247Y-93197641D01*
X33168243Y-93197636D01*
X33012363Y-93041756D01*
X33012358Y-93041752D01*
X32872745Y-92940318D01*
X32830079Y-92884989D01*
X32824100Y-92815375D01*
X32856705Y-92753580D01*
X32872745Y-92739682D01*
X33012358Y-92638247D01*
X33012356Y-92638247D01*
X33012365Y-92638242D01*
X33168242Y-92482365D01*
X33297815Y-92304022D01*
X33397895Y-92107606D01*
X33466015Y-91897951D01*
X33500500Y-91680222D01*
X33500500Y-91459778D01*
X45939500Y-91459778D01*
X45939500Y-91680221D01*
X45973985Y-91897952D01*
X46042103Y-92107603D01*
X46042104Y-92107606D01*
X46142187Y-92304025D01*
X46271752Y-92482358D01*
X46271756Y-92482363D01*
X46427636Y-92638243D01*
X46427641Y-92638247D01*
X46567254Y-92739682D01*
X46609920Y-92795012D01*
X46615899Y-92864625D01*
X46583293Y-92926420D01*
X46567254Y-92940318D01*
X46427641Y-93041752D01*
X46427636Y-93041756D01*
X46271756Y-93197636D01*
X46271752Y-93197641D01*
X46142187Y-93375974D01*
X46042104Y-93572393D01*
X46042103Y-93572396D01*
X45973985Y-93782047D01*
X45939500Y-93999778D01*
X45939500Y-94220221D01*
X45973985Y-94437952D01*
X46042103Y-94647603D01*
X46042104Y-94647606D01*
X46108649Y-94778204D01*
X46137333Y-94834500D01*
X46142187Y-94844025D01*
X46271752Y-95022358D01*
X46271756Y-95022363D01*
X46427636Y-95178243D01*
X46427641Y-95178247D01*
X46567254Y-95279682D01*
X46609920Y-95335012D01*
X46615899Y-95404625D01*
X46583293Y-95466420D01*
X46567254Y-95480318D01*
X46427641Y-95581752D01*
X46427636Y-95581756D01*
X46271756Y-95737636D01*
X46271752Y-95737641D01*
X46142187Y-95915974D01*
X46042104Y-96112393D01*
X46042103Y-96112396D01*
X45973985Y-96322047D01*
X45939500Y-96539778D01*
X45939500Y-96760221D01*
X45973985Y-96977952D01*
X46042103Y-97187603D01*
X46042104Y-97187606D01*
X46142187Y-97384025D01*
X46271752Y-97562358D01*
X46271756Y-97562363D01*
X46427636Y-97718243D01*
X46427641Y-97718247D01*
X46567254Y-97819682D01*
X46609920Y-97875012D01*
X46615899Y-97944625D01*
X46583293Y-98006420D01*
X46567254Y-98020318D01*
X46427641Y-98121752D01*
X46427636Y-98121756D01*
X46271756Y-98277636D01*
X46271752Y-98277641D01*
X46142187Y-98455974D01*
X46042104Y-98652393D01*
X46042103Y-98652396D01*
X45973985Y-98862047D01*
X45939500Y-99079778D01*
X45939500Y-99300221D01*
X45973985Y-99517952D01*
X46042103Y-99727603D01*
X46042104Y-99727606D01*
X46142187Y-99924025D01*
X46271752Y-100102358D01*
X46271756Y-100102363D01*
X46427636Y-100258243D01*
X46427641Y-100258247D01*
X46567254Y-100359682D01*
X46609920Y-100415012D01*
X46615899Y-100484625D01*
X46583293Y-100546420D01*
X46567254Y-100560318D01*
X46427641Y-100661752D01*
X46427636Y-100661756D01*
X46271756Y-100817636D01*
X46271752Y-100817641D01*
X46142187Y-100995974D01*
X46042104Y-101192393D01*
X46042103Y-101192396D01*
X45973985Y-101402047D01*
X45939500Y-101619778D01*
X45939500Y-101840221D01*
X45973985Y-102057952D01*
X46042103Y-102267603D01*
X46042104Y-102267606D01*
X46078693Y-102339414D01*
X46130572Y-102441231D01*
X46142187Y-102464025D01*
X46271752Y-102642358D01*
X46271756Y-102642363D01*
X46427636Y-102798243D01*
X46427641Y-102798247D01*
X46567254Y-102899682D01*
X46609920Y-102955012D01*
X46615899Y-103024625D01*
X46583293Y-103086420D01*
X46567254Y-103100318D01*
X46427641Y-103201752D01*
X46427636Y-103201756D01*
X46271756Y-103357636D01*
X46271752Y-103357641D01*
X46142187Y-103535974D01*
X46042104Y-103732393D01*
X46042103Y-103732396D01*
X45973985Y-103942047D01*
X45939500Y-104159778D01*
X45939500Y-104380221D01*
X45973985Y-104597952D01*
X46042103Y-104807603D01*
X46042104Y-104807606D01*
X46142187Y-105004025D01*
X46271752Y-105182358D01*
X46271756Y-105182363D01*
X46427636Y-105338243D01*
X46427641Y-105338247D01*
X46567254Y-105439682D01*
X46609920Y-105495012D01*
X46615899Y-105564625D01*
X46583293Y-105626420D01*
X46567254Y-105640318D01*
X46427641Y-105741752D01*
X46427636Y-105741756D01*
X46271756Y-105897636D01*
X46271752Y-105897641D01*
X46142187Y-106075974D01*
X46042104Y-106272393D01*
X46042103Y-106272396D01*
X45973985Y-106482047D01*
X45939500Y-106699778D01*
X45939500Y-106920221D01*
X45973985Y-107137952D01*
X46042103Y-107347603D01*
X46042104Y-107347606D01*
X46142187Y-107544025D01*
X46271752Y-107722358D01*
X46271756Y-107722363D01*
X46427640Y-107878247D01*
X46567679Y-107979990D01*
X46610345Y-108035319D01*
X46616324Y-108104933D01*
X46583719Y-108166728D01*
X46567679Y-108180626D01*
X46542485Y-108198930D01*
X46542485Y-108198932D01*
X47210590Y-108867037D01*
X47147007Y-108884075D01*
X47032993Y-108949901D01*
X46939901Y-109042993D01*
X46874075Y-109157007D01*
X46857037Y-109220590D01*
X46188932Y-108552485D01*
X46188931Y-108552485D01*
X46142616Y-108616233D01*
X46042567Y-108812589D01*
X45974473Y-109022164D01*
X45940000Y-109239818D01*
X45940000Y-109460181D01*
X45974473Y-109677835D01*
X46042567Y-109887410D01*
X46142611Y-110083756D01*
X46188932Y-110147513D01*
X46857037Y-109479408D01*
X46874075Y-109542993D01*
X46939901Y-109657007D01*
X47032993Y-109750099D01*
X47147007Y-109815925D01*
X47210589Y-109832962D01*
X46536615Y-110506935D01*
X46526856Y-110553390D01*
X46493676Y-110592663D01*
X46475070Y-110607116D01*
X46475058Y-110607127D01*
X46057121Y-111025063D01*
X46057110Y-111025076D01*
X46005135Y-111091982D01*
X45950061Y-111224946D01*
X45950059Y-111224953D01*
X45939500Y-111309019D01*
X45939500Y-112837870D01*
X45939501Y-112837876D01*
X45945908Y-112897483D01*
X45996202Y-113032328D01*
X45996206Y-113032335D01*
X46082452Y-113147544D01*
X46082455Y-113147547D01*
X46197664Y-113233793D01*
X46197671Y-113233797D01*
X46332517Y-113284091D01*
X46332516Y-113284091D01*
X46339444Y-113284835D01*
X46392127Y-113290500D01*
X47132795Y-113290499D01*
X47199834Y-113310183D01*
X47220476Y-113326818D01*
X48773072Y-114879414D01*
X48913212Y-114981232D01*
X48940269Y-114995018D01*
X49067549Y-115059871D01*
X49067551Y-115059871D01*
X49067554Y-115059873D01*
X49232299Y-115113402D01*
X49403389Y-115140500D01*
X49403390Y-115140500D01*
X51885332Y-115140500D01*
X51885333Y-115140500D01*
X52056423Y-115113402D01*
X52221167Y-115059873D01*
X52375510Y-114981232D01*
X52515650Y-114879414D01*
X53739414Y-113655650D01*
X53841232Y-113515510D01*
X53919873Y-113361168D01*
X53973402Y-113196423D01*
X54000500Y-113025333D01*
X54000500Y-112852112D01*
X54000500Y-88827389D01*
X53996795Y-88803996D01*
X53973403Y-88656299D01*
X53919873Y-88491555D01*
X53919871Y-88491552D01*
X53919871Y-88491550D01*
X53874189Y-88401895D01*
X53874188Y-88401894D01*
X53853630Y-88361546D01*
X53841232Y-88337212D01*
X53841231Y-88337211D01*
X53841229Y-88337207D01*
X53787742Y-88263590D01*
X53739414Y-88197072D01*
X53616928Y-88074586D01*
X52510403Y-86968061D01*
X52476918Y-86906738D01*
X52475611Y-86899777D01*
X52456015Y-86776049D01*
X52456014Y-86776045D01*
X52387896Y-86566396D01*
X52387895Y-86566393D01*
X52333882Y-86460389D01*
X52287815Y-86369978D01*
X52277745Y-86356118D01*
X52214182Y-86268629D01*
X52190702Y-86202823D01*
X52190500Y-86195744D01*
X52190500Y-85472254D01*
X52210185Y-85405215D01*
X52214165Y-85399392D01*
X52287815Y-85298022D01*
X52387895Y-85101606D01*
X52456015Y-84891951D01*
X52490500Y-84674222D01*
X52490500Y-84453778D01*
X52456015Y-84236049D01*
X52387895Y-84026394D01*
X52387895Y-84026393D01*
X52331572Y-83915855D01*
X52287815Y-83829978D01*
X52241320Y-83765983D01*
X52191794Y-83697815D01*
X52191793Y-83697814D01*
X52158245Y-83651638D01*
X52135602Y-83628995D01*
X54959500Y-83628995D01*
X54959500Y-83865004D01*
X54959501Y-83865020D01*
X54990306Y-84099010D01*
X55051394Y-84326993D01*
X55141714Y-84545045D01*
X55141719Y-84545056D01*
X55212677Y-84667957D01*
X55259727Y-84749450D01*
X55259729Y-84749453D01*
X55259730Y-84749454D01*
X55403406Y-84936697D01*
X55403412Y-84936704D01*
X55570299Y-85103591D01*
X55570302Y-85103593D01*
X55610985Y-85134810D01*
X55652188Y-85191236D01*
X55659500Y-85233186D01*
X55659500Y-93859402D01*
X55680496Y-93991971D01*
X55686598Y-94030493D01*
X55740127Y-94195237D01*
X55818768Y-94349580D01*
X55920586Y-94489720D01*
X61607794Y-100176928D01*
X61730280Y-100299414D01*
X61870420Y-100401232D01*
X62024763Y-100479873D01*
X62189507Y-100533402D01*
X62360597Y-100560500D01*
X62360598Y-100560500D01*
X62533819Y-100560500D01*
X62811745Y-100560500D01*
X62832165Y-100566496D01*
X62853414Y-100567711D01*
X62874888Y-100579041D01*
X62878784Y-100580185D01*
X62884616Y-100584171D01*
X62947257Y-100629682D01*
X62989921Y-100685010D01*
X62995900Y-100754623D01*
X62963295Y-100816419D01*
X62947255Y-100830317D01*
X62807641Y-100931752D01*
X62807636Y-100931756D01*
X62651756Y-101087636D01*
X62651752Y-101087641D01*
X62522187Y-101265974D01*
X62422104Y-101462393D01*
X62422103Y-101462396D01*
X62353985Y-101672047D01*
X62353985Y-101672049D01*
X62319500Y-101889778D01*
X62319500Y-102110222D01*
X62336742Y-102219086D01*
X62353985Y-102327952D01*
X62422103Y-102537603D01*
X62422104Y-102537606D01*
X62522187Y-102734025D01*
X62651752Y-102912358D01*
X62651756Y-102912363D01*
X62807636Y-103068243D01*
X62807641Y-103068247D01*
X62947254Y-103169682D01*
X62989920Y-103225012D01*
X62995899Y-103294625D01*
X62963293Y-103356420D01*
X62947254Y-103370318D01*
X62807641Y-103471752D01*
X62807636Y-103471756D01*
X62651756Y-103627636D01*
X62651752Y-103627641D01*
X62522187Y-103805974D01*
X62422104Y-104002393D01*
X62422103Y-104002396D01*
X62353985Y-104212047D01*
X62319500Y-104429778D01*
X62319500Y-104650221D01*
X62353985Y-104867952D01*
X62422103Y-105077603D01*
X62422104Y-105077606D01*
X62522187Y-105274025D01*
X62651752Y-105452358D01*
X62651756Y-105452363D01*
X62807636Y-105608243D01*
X62807641Y-105608247D01*
X62947254Y-105709682D01*
X62989920Y-105765012D01*
X62995899Y-105834625D01*
X62963293Y-105896420D01*
X62947254Y-105910318D01*
X62807641Y-106011752D01*
X62807636Y-106011756D01*
X62651756Y-106167636D01*
X62651752Y-106167641D01*
X62522187Y-106345974D01*
X62422104Y-106542393D01*
X62422103Y-106542396D01*
X62353985Y-106752047D01*
X62319500Y-106969778D01*
X62319500Y-107190221D01*
X62353985Y-107407952D01*
X62422103Y-107617603D01*
X62422104Y-107617606D01*
X62475479Y-107722358D01*
X62513777Y-107797521D01*
X62522187Y-107814025D01*
X62651752Y-107992358D01*
X62651756Y-107992363D01*
X62807636Y-108148243D01*
X62807641Y-108148247D01*
X62947254Y-108249682D01*
X62989920Y-108305012D01*
X62995899Y-108374625D01*
X62963293Y-108436420D01*
X62947254Y-108450318D01*
X62807641Y-108551752D01*
X62807636Y-108551756D01*
X62651756Y-108707636D01*
X62651752Y-108707641D01*
X62522187Y-108885974D01*
X62422104Y-109082393D01*
X62422103Y-109082396D01*
X62353985Y-109292047D01*
X62319500Y-109509778D01*
X62319500Y-109730221D01*
X62353985Y-109947952D01*
X62422103Y-110157603D01*
X62422104Y-110157606D01*
X62522187Y-110354025D01*
X62651752Y-110532358D01*
X62651756Y-110532363D01*
X62807640Y-110688247D01*
X62947679Y-110789990D01*
X62990345Y-110845319D01*
X62996324Y-110914933D01*
X62963719Y-110976728D01*
X62947679Y-110990626D01*
X62922485Y-111008930D01*
X62922485Y-111008932D01*
X63590590Y-111677037D01*
X63527007Y-111694075D01*
X63412993Y-111759901D01*
X63319901Y-111852993D01*
X63254075Y-111967007D01*
X63237037Y-112030590D01*
X62568932Y-111362485D01*
X62568931Y-111362485D01*
X62522616Y-111426233D01*
X62422567Y-111622589D01*
X62354473Y-111832164D01*
X62320000Y-112049818D01*
X62320000Y-112270181D01*
X62354473Y-112487835D01*
X62422567Y-112697410D01*
X62522611Y-112893756D01*
X62568932Y-112957513D01*
X63237037Y-112289408D01*
X63254075Y-112352993D01*
X63319901Y-112467007D01*
X63412993Y-112560099D01*
X63527007Y-112625925D01*
X63590590Y-112642962D01*
X62922485Y-113311065D01*
X62922485Y-113311066D01*
X62986243Y-113357388D01*
X63182589Y-113457432D01*
X63392164Y-113525526D01*
X63609819Y-113560000D01*
X63830181Y-113560000D01*
X64047835Y-113525526D01*
X64257410Y-113457432D01*
X64453760Y-113357386D01*
X64517513Y-113311066D01*
X64517514Y-113311066D01*
X63849409Y-112642962D01*
X63912993Y-112625925D01*
X64027007Y-112560099D01*
X64120099Y-112467007D01*
X64185925Y-112352993D01*
X64202962Y-112289409D01*
X64871066Y-112957514D01*
X64871066Y-112957513D01*
X64917386Y-112893760D01*
X65017432Y-112697410D01*
X65085526Y-112487835D01*
X65120000Y-112270181D01*
X65120000Y-112049818D01*
X65085526Y-111832164D01*
X65017432Y-111622589D01*
X64917388Y-111426243D01*
X64871066Y-111362485D01*
X64871065Y-111362485D01*
X64202962Y-112030589D01*
X64185925Y-111967007D01*
X64120099Y-111852993D01*
X64027007Y-111759901D01*
X63912993Y-111694075D01*
X63849407Y-111677037D01*
X64517513Y-111008932D01*
X64492319Y-110990628D01*
X64449653Y-110935298D01*
X64443674Y-110865685D01*
X64476279Y-110803889D01*
X64492313Y-110789994D01*
X64632365Y-110688242D01*
X64788242Y-110532365D01*
X64917815Y-110354022D01*
X65017895Y-110157606D01*
X65086015Y-109947951D01*
X65120500Y-109730222D01*
X65120500Y-109509778D01*
X65086015Y-109292049D01*
X65017895Y-109082394D01*
X65017895Y-109082393D01*
X64962154Y-108972998D01*
X64917815Y-108885978D01*
X64866401Y-108815212D01*
X64788247Y-108707641D01*
X64788243Y-108707636D01*
X64632363Y-108551756D01*
X64632358Y-108551752D01*
X64492744Y-108450317D01*
X64475568Y-108428043D01*
X64455958Y-108407864D01*
X64454514Y-108400740D01*
X64450078Y-108394987D01*
X64447670Y-108366961D01*
X64442084Y-108339386D01*
X64444720Y-108332613D01*
X64444099Y-108325374D01*
X64457226Y-108300493D01*
X64467434Y-108274277D01*
X64474874Y-108267046D01*
X64476704Y-108263579D01*
X64492736Y-108249687D01*
X64555371Y-108204181D01*
X64621178Y-108180702D01*
X64628255Y-108180500D01*
X65007700Y-108180500D01*
X65007701Y-108180500D01*
X65178791Y-108153402D01*
X65343535Y-108099873D01*
X65497878Y-108021232D01*
X65638018Y-107919414D01*
X66662821Y-106894609D01*
X66724142Y-106861126D01*
X66793833Y-106866110D01*
X66849767Y-106907981D01*
X66874184Y-106973446D01*
X66874500Y-106982292D01*
X66874500Y-108272501D01*
X66874501Y-108272518D01*
X66885000Y-108375296D01*
X66885001Y-108375299D01*
X66940185Y-108541831D01*
X66940187Y-108541836D01*
X66975069Y-108598388D01*
X67032288Y-108691156D01*
X67156344Y-108815212D01*
X67305666Y-108907314D01*
X67472203Y-108962499D01*
X67574991Y-108973000D01*
X69775008Y-108972999D01*
X69877797Y-108962499D01*
X70044334Y-108907314D01*
X70193656Y-108815212D01*
X70317712Y-108691156D01*
X70409814Y-108541834D01*
X70464999Y-108375297D01*
X70475500Y-108272509D01*
X70475499Y-107054514D01*
X71955000Y-107054514D01*
X71955000Y-107290485D01*
X71985799Y-107524414D01*
X72046870Y-107752337D01*
X72137160Y-107970319D01*
X72137165Y-107970328D01*
X72255144Y-108174671D01*
X72255145Y-108174672D01*
X72317721Y-108256223D01*
X73153958Y-107419987D01*
X73178978Y-107480390D01*
X73250112Y-107586851D01*
X73340649Y-107677388D01*
X73447110Y-107748522D01*
X73507511Y-107773541D01*
X72671275Y-108609777D01*
X72752827Y-108672354D01*
X72752828Y-108672355D01*
X72957171Y-108790334D01*
X72957180Y-108790339D01*
X73175163Y-108880629D01*
X73175161Y-108880629D01*
X73403085Y-108941700D01*
X73637014Y-108972499D01*
X73637029Y-108972500D01*
X73872971Y-108972500D01*
X73872985Y-108972499D01*
X74106914Y-108941700D01*
X74334837Y-108880629D01*
X74552819Y-108790339D01*
X74552828Y-108790334D01*
X74757181Y-108672350D01*
X74838723Y-108609779D01*
X74838723Y-108609776D01*
X74002487Y-107773541D01*
X74062890Y-107748522D01*
X74169351Y-107677388D01*
X74259888Y-107586851D01*
X74331022Y-107480390D01*
X74356041Y-107419988D01*
X75192276Y-108256223D01*
X75192279Y-108256223D01*
X75254850Y-108174681D01*
X75372834Y-107970328D01*
X75372839Y-107970319D01*
X75463129Y-107752337D01*
X75524200Y-107524414D01*
X75554999Y-107290485D01*
X75555000Y-107290471D01*
X75555000Y-107054528D01*
X75554999Y-107054514D01*
X75524200Y-106820585D01*
X75463129Y-106592662D01*
X75372839Y-106374680D01*
X75372834Y-106374671D01*
X75254855Y-106170328D01*
X75254854Y-106170327D01*
X75192277Y-106088775D01*
X74356041Y-106925011D01*
X74331022Y-106864610D01*
X74259888Y-106758149D01*
X74169351Y-106667612D01*
X74062890Y-106596478D01*
X74002488Y-106571458D01*
X74838723Y-105735221D01*
X74757172Y-105672645D01*
X74757171Y-105672644D01*
X74552828Y-105554665D01*
X74552819Y-105554660D01*
X74334836Y-105464370D01*
X74334838Y-105464370D01*
X74106914Y-105403299D01*
X73872985Y-105372500D01*
X73637014Y-105372500D01*
X73403085Y-105403299D01*
X73175162Y-105464370D01*
X72957180Y-105554660D01*
X72957171Y-105554665D01*
X72752828Y-105672644D01*
X72752818Y-105672650D01*
X72671275Y-105735220D01*
X72671275Y-105735221D01*
X73507512Y-106571458D01*
X73447110Y-106596478D01*
X73340649Y-106667612D01*
X73250112Y-106758149D01*
X73178978Y-106864610D01*
X73153958Y-106925011D01*
X72317721Y-106088775D01*
X72317720Y-106088775D01*
X72255150Y-106170318D01*
X72255144Y-106170328D01*
X72137165Y-106374671D01*
X72137160Y-106374680D01*
X72046870Y-106592662D01*
X71985799Y-106820585D01*
X71955000Y-107054514D01*
X70475499Y-107054514D01*
X70475499Y-106072492D01*
X70464999Y-105969703D01*
X70435998Y-105882185D01*
X70416114Y-105822178D01*
X70416113Y-105822176D01*
X70412078Y-105810000D01*
X70409814Y-105803166D01*
X70317712Y-105653844D01*
X70193656Y-105529788D01*
X70087596Y-105464370D01*
X70044336Y-105437687D01*
X70044331Y-105437685D01*
X70042862Y-105437198D01*
X69877797Y-105382501D01*
X69877795Y-105382500D01*
X69775016Y-105372000D01*
X69775009Y-105372000D01*
X68484793Y-105372000D01*
X68417754Y-105352315D01*
X68371999Y-105299511D01*
X68362055Y-105230353D01*
X68391080Y-105166797D01*
X68397112Y-105160319D01*
X69611580Y-103945852D01*
X70920613Y-102636819D01*
X70981936Y-102603334D01*
X71008294Y-102600500D01*
X73086610Y-102600500D01*
X73086611Y-102600500D01*
X73257701Y-102573402D01*
X73422445Y-102519873D01*
X73576788Y-102441232D01*
X73716928Y-102339414D01*
X75119414Y-100936928D01*
X75221232Y-100796788D01*
X75299873Y-100642446D01*
X75353402Y-100477701D01*
X75380500Y-100306611D01*
X75380500Y-100133390D01*
X75380500Y-82093979D01*
X75353402Y-81922889D01*
X75299873Y-81758145D01*
X75221232Y-81603802D01*
X75119414Y-81463662D01*
X74996928Y-81341176D01*
X74283338Y-80627586D01*
X74143198Y-80525768D01*
X73988855Y-80447127D01*
X73824111Y-80393598D01*
X73824109Y-80393597D01*
X73824108Y-80393597D01*
X73692681Y-80372781D01*
X73653021Y-80366500D01*
X69286611Y-80366500D01*
X69113389Y-80366500D01*
X69073728Y-80372781D01*
X68942302Y-80393597D01*
X68777552Y-80447128D01*
X68623211Y-80525768D01*
X68543256Y-80583859D01*
X68483072Y-80627586D01*
X68483070Y-80627588D01*
X68483069Y-80627588D01*
X67192721Y-81917935D01*
X67131398Y-81951420D01*
X67088856Y-81953193D01*
X67038013Y-81946500D01*
X67038011Y-81946500D01*
X66801989Y-81946500D01*
X66801983Y-81946500D01*
X66801979Y-81946501D01*
X66567989Y-81977306D01*
X66340006Y-82038394D01*
X66121954Y-82128714D01*
X66121943Y-82128719D01*
X65917545Y-82246730D01*
X65730302Y-82390406D01*
X65730295Y-82390412D01*
X65563412Y-82557295D01*
X65563406Y-82557302D01*
X65419730Y-82744545D01*
X65301719Y-82948943D01*
X65301714Y-82948954D01*
X65211394Y-83167006D01*
X65150306Y-83394989D01*
X65121194Y-83616123D01*
X65119501Y-83628986D01*
X65119500Y-83628995D01*
X65119500Y-83865004D01*
X65119501Y-83865020D01*
X65150306Y-84099010D01*
X65211394Y-84326993D01*
X65301714Y-84545045D01*
X65301719Y-84545056D01*
X65372677Y-84667957D01*
X65419727Y-84749450D01*
X65419729Y-84749453D01*
X65419730Y-84749454D01*
X65563406Y-84936697D01*
X65563412Y-84936704D01*
X65730295Y-85103587D01*
X65730300Y-85103591D01*
X65730301Y-85103592D01*
X65917550Y-85247273D01*
X66005450Y-85298022D01*
X66121943Y-85365280D01*
X66121948Y-85365282D01*
X66121951Y-85365284D01*
X66340007Y-85455606D01*
X66567986Y-85516693D01*
X66801989Y-85547500D01*
X66801996Y-85547500D01*
X67038004Y-85547500D01*
X67038011Y-85547500D01*
X67272014Y-85516693D01*
X67499993Y-85455606D01*
X67545302Y-85436838D01*
X67583032Y-85427781D01*
X67586602Y-85427500D01*
X67586611Y-85427500D01*
X67757701Y-85400402D01*
X67922445Y-85346873D01*
X68076788Y-85268232D01*
X68216928Y-85166414D01*
X68339414Y-85043928D01*
X68441232Y-84903788D01*
X68519873Y-84749445D01*
X68573402Y-84584701D01*
X68600500Y-84413611D01*
X68600500Y-84413608D01*
X68600783Y-84410018D01*
X68609839Y-84372299D01*
X68628606Y-84326993D01*
X68689693Y-84099014D01*
X68720500Y-83865011D01*
X68720500Y-83628989D01*
X68713805Y-83578141D01*
X68724569Y-83509110D01*
X68749060Y-83474280D01*
X69619523Y-82603819D01*
X69680846Y-82570334D01*
X69707204Y-82567500D01*
X70075500Y-82567500D01*
X70142539Y-82587185D01*
X70188294Y-82639989D01*
X70199500Y-82691500D01*
X70199500Y-83939795D01*
X70179815Y-84006834D01*
X70163181Y-84027476D01*
X68483072Y-85707586D01*
X68360588Y-85830069D01*
X68360588Y-85830070D01*
X68360586Y-85830072D01*
X68348684Y-85846454D01*
X68258768Y-85970211D01*
X68180128Y-86124552D01*
X68126597Y-86289302D01*
X68099500Y-86460389D01*
X68099500Y-88150796D01*
X68079815Y-88217835D01*
X68027011Y-88263590D01*
X67957853Y-88273534D01*
X67894297Y-88244509D01*
X67887819Y-88238477D01*
X63669064Y-84019722D01*
X63635579Y-83958399D01*
X63633806Y-83915855D01*
X63640499Y-83865018D01*
X63640500Y-83865011D01*
X63640500Y-83628989D01*
X63609693Y-83394986D01*
X63548606Y-83167007D01*
X63458284Y-82948951D01*
X63458282Y-82948948D01*
X63458280Y-82948943D01*
X63416118Y-82875918D01*
X63340273Y-82744550D01*
X63260041Y-82639989D01*
X63196593Y-82557302D01*
X63196587Y-82557295D01*
X63029704Y-82390412D01*
X63029697Y-82390406D01*
X62842454Y-82246730D01*
X62842453Y-82246729D01*
X62842450Y-82246727D01*
X62760957Y-82199677D01*
X62638056Y-82128719D01*
X62638045Y-82128714D01*
X62419993Y-82038394D01*
X62192010Y-81977306D01*
X61958020Y-81946501D01*
X61958017Y-81946500D01*
X61958011Y-81946500D01*
X61721989Y-81946500D01*
X61721983Y-81946500D01*
X61721979Y-81946501D01*
X61487989Y-81977306D01*
X61260006Y-82038394D01*
X61041954Y-82128714D01*
X61041943Y-82128719D01*
X60837545Y-82246730D01*
X60650302Y-82390406D01*
X60650295Y-82390412D01*
X60483412Y-82557295D01*
X60483406Y-82557302D01*
X60339730Y-82744545D01*
X60221719Y-82948943D01*
X60221714Y-82948954D01*
X60131394Y-83167006D01*
X60070306Y-83394989D01*
X60041194Y-83616123D01*
X60039501Y-83628986D01*
X60039500Y-83628995D01*
X60039500Y-83865004D01*
X60039501Y-83865020D01*
X60070306Y-84099010D01*
X60131394Y-84326993D01*
X60221714Y-84545045D01*
X60221719Y-84545056D01*
X60292677Y-84667957D01*
X60339727Y-84749450D01*
X60339729Y-84749453D01*
X60339730Y-84749454D01*
X60483406Y-84936697D01*
X60483412Y-84936704D01*
X60650295Y-85103587D01*
X60650300Y-85103591D01*
X60650301Y-85103592D01*
X60837550Y-85247273D01*
X60925450Y-85298022D01*
X61041943Y-85365280D01*
X61041948Y-85365282D01*
X61041951Y-85365284D01*
X61260007Y-85455606D01*
X61487986Y-85516693D01*
X61721989Y-85547500D01*
X61721996Y-85547500D01*
X61958004Y-85547500D01*
X61958011Y-85547500D01*
X62008855Y-85540806D01*
X62077890Y-85551571D01*
X62112722Y-85576064D01*
X66363181Y-89826523D01*
X66396666Y-89887846D01*
X66399500Y-89914204D01*
X66399500Y-98985587D01*
X66379815Y-99052626D01*
X66363181Y-99073268D01*
X65134191Y-100302257D01*
X65072868Y-100335742D01*
X65003176Y-100330758D01*
X64947243Y-100288886D01*
X64922826Y-100223422D01*
X64936025Y-100158282D01*
X65017895Y-99997606D01*
X65086015Y-99787951D01*
X65120500Y-99570222D01*
X65120500Y-99349778D01*
X65086015Y-99132049D01*
X65017895Y-98922394D01*
X65017895Y-98922393D01*
X64983237Y-98854375D01*
X64917815Y-98725978D01*
X64864355Y-98652396D01*
X64788247Y-98547641D01*
X64788243Y-98547636D01*
X64632363Y-98391756D01*
X64632358Y-98391752D01*
X64492319Y-98290008D01*
X64449653Y-98234678D01*
X64443674Y-98165065D01*
X64476279Y-98103270D01*
X64492319Y-98089372D01*
X64517513Y-98071066D01*
X64517514Y-98071066D01*
X63849409Y-97402962D01*
X63912993Y-97385925D01*
X64027007Y-97320099D01*
X64120099Y-97227007D01*
X64185925Y-97112993D01*
X64202962Y-97049409D01*
X64871066Y-97717514D01*
X64871066Y-97717513D01*
X64917386Y-97653760D01*
X65017432Y-97457410D01*
X65085526Y-97247835D01*
X65120000Y-97030181D01*
X65120000Y-96809818D01*
X65085526Y-96592164D01*
X65017432Y-96382589D01*
X64917388Y-96186243D01*
X64871066Y-96122485D01*
X64871065Y-96122485D01*
X64202962Y-96790589D01*
X64185925Y-96727007D01*
X64120099Y-96612993D01*
X64027007Y-96519901D01*
X63912993Y-96454075D01*
X63849407Y-96437037D01*
X64517513Y-95768932D01*
X64492319Y-95750628D01*
X64449653Y-95695298D01*
X64443674Y-95625685D01*
X64476279Y-95563889D01*
X64492313Y-95549994D01*
X64632365Y-95448242D01*
X64788242Y-95292365D01*
X64917815Y-95114022D01*
X65017895Y-94917606D01*
X65086015Y-94707951D01*
X65120500Y-94490222D01*
X65120500Y-94269778D01*
X65086015Y-94052049D01*
X65043008Y-93919685D01*
X65017896Y-93842396D01*
X65017895Y-93842393D01*
X64983237Y-93774375D01*
X64917815Y-93645978D01*
X64864355Y-93572396D01*
X64788247Y-93467641D01*
X64788243Y-93467636D01*
X64632363Y-93311756D01*
X64632358Y-93311752D01*
X64454025Y-93182187D01*
X64454024Y-93182186D01*
X64454022Y-93182185D01*
X64336791Y-93122452D01*
X64257606Y-93082104D01*
X64257603Y-93082103D01*
X64047952Y-93013985D01*
X63939086Y-92996742D01*
X63830222Y-92979500D01*
X63609778Y-92979500D01*
X63537201Y-92990995D01*
X63392047Y-93013985D01*
X63182396Y-93082103D01*
X63182393Y-93082104D01*
X62985974Y-93182187D01*
X62807641Y-93311752D01*
X62807636Y-93311756D01*
X62651756Y-93467636D01*
X62651752Y-93467641D01*
X62522187Y-93645974D01*
X62422104Y-93842393D01*
X62422103Y-93842396D01*
X62353985Y-94052047D01*
X62319500Y-94269778D01*
X62319500Y-94490221D01*
X62353985Y-94707952D01*
X62422103Y-94917603D01*
X62422104Y-94917606D01*
X62522187Y-95114025D01*
X62651752Y-95292358D01*
X62651756Y-95292363D01*
X62807640Y-95448247D01*
X62947679Y-95549990D01*
X62990345Y-95605319D01*
X62996324Y-95674933D01*
X62963719Y-95736728D01*
X62947679Y-95750626D01*
X62922485Y-95768930D01*
X62922485Y-95768932D01*
X63590590Y-96437037D01*
X63527007Y-96454075D01*
X63412993Y-96519901D01*
X63319901Y-96612993D01*
X63254075Y-96727007D01*
X63237037Y-96790591D01*
X62568932Y-96122485D01*
X62568931Y-96122485D01*
X62522616Y-96186233D01*
X62422567Y-96382589D01*
X62354473Y-96592164D01*
X62320000Y-96809818D01*
X62320000Y-97030181D01*
X62354473Y-97247835D01*
X62422567Y-97457410D01*
X62505120Y-97619428D01*
X62518016Y-97688097D01*
X62491740Y-97752838D01*
X62434633Y-97793095D01*
X62364828Y-97796087D01*
X62306954Y-97763404D01*
X57896819Y-93353269D01*
X57863334Y-93291946D01*
X57860500Y-93265588D01*
X57860500Y-85233186D01*
X57880185Y-85166147D01*
X57909013Y-85134810D01*
X57949699Y-85103592D01*
X58116592Y-84936699D01*
X58260273Y-84749450D01*
X58378284Y-84545049D01*
X58468606Y-84326993D01*
X58529693Y-84099014D01*
X58560500Y-83865011D01*
X58560500Y-83628989D01*
X58529693Y-83394986D01*
X58468606Y-83167007D01*
X58378284Y-82948951D01*
X58378282Y-82948948D01*
X58378280Y-82948943D01*
X58336118Y-82875918D01*
X58260273Y-82744550D01*
X58180041Y-82639989D01*
X58116593Y-82557302D01*
X58116587Y-82557295D01*
X57949704Y-82390412D01*
X57949697Y-82390406D01*
X57762454Y-82246730D01*
X57762453Y-82246729D01*
X57762450Y-82246727D01*
X57680957Y-82199677D01*
X57558056Y-82128719D01*
X57558045Y-82128714D01*
X57339993Y-82038394D01*
X57112010Y-81977306D01*
X56878020Y-81946501D01*
X56878017Y-81946500D01*
X56878011Y-81946500D01*
X56641989Y-81946500D01*
X56641983Y-81946500D01*
X56641979Y-81946501D01*
X56407989Y-81977306D01*
X56180006Y-82038394D01*
X55961954Y-82128714D01*
X55961943Y-82128719D01*
X55757545Y-82246730D01*
X55570302Y-82390406D01*
X55570295Y-82390412D01*
X55403412Y-82557295D01*
X55403406Y-82557302D01*
X55259730Y-82744545D01*
X55141719Y-82948943D01*
X55141714Y-82948954D01*
X55051394Y-83167006D01*
X54990306Y-83394989D01*
X54961194Y-83616123D01*
X54959501Y-83628986D01*
X54959500Y-83628995D01*
X52135602Y-83628995D01*
X52002363Y-83495756D01*
X52002358Y-83495752D01*
X51824025Y-83366187D01*
X51824024Y-83366186D01*
X51824022Y-83366185D01*
X51706791Y-83306452D01*
X51627606Y-83266104D01*
X51627603Y-83266103D01*
X51417952Y-83197985D01*
X51266895Y-83174060D01*
X51200222Y-83163500D01*
X50979778Y-83163500D01*
X50913105Y-83174060D01*
X50762047Y-83197985D01*
X50552396Y-83266103D01*
X50552393Y-83266104D01*
X50355974Y-83366187D01*
X50177641Y-83495752D01*
X50177636Y-83495756D01*
X50021756Y-83651636D01*
X50021752Y-83651641D01*
X49892187Y-83829974D01*
X49792104Y-84026393D01*
X49792103Y-84026396D01*
X49723985Y-84236047D01*
X49689500Y-84453778D01*
X49689500Y-84674221D01*
X49723985Y-84891952D01*
X49792103Y-85101603D01*
X49792104Y-85101606D01*
X49877006Y-85268232D01*
X49892185Y-85298022D01*
X49965819Y-85399370D01*
X49989298Y-85465174D01*
X49989500Y-85472254D01*
X49989500Y-86195744D01*
X49969815Y-86262783D01*
X49965818Y-86268629D01*
X49892187Y-86369974D01*
X49792104Y-86566393D01*
X49792103Y-86566396D01*
X49723985Y-86776047D01*
X49689500Y-86993778D01*
X49689500Y-87214221D01*
X49723985Y-87431952D01*
X49792103Y-87641603D01*
X49792104Y-87641606D01*
X49892187Y-87838025D01*
X50021752Y-88016358D01*
X50021756Y-88016363D01*
X50177636Y-88172243D01*
X50177641Y-88172247D01*
X50279606Y-88246328D01*
X50355978Y-88301815D01*
X50484375Y-88367237D01*
X50552393Y-88401895D01*
X50552396Y-88401896D01*
X50762045Y-88470014D01*
X50762049Y-88470015D01*
X50885777Y-88489611D01*
X50948912Y-88519540D01*
X50954061Y-88524403D01*
X51763181Y-89333523D01*
X51796666Y-89394846D01*
X51799500Y-89421204D01*
X51799500Y-92855500D01*
X51779815Y-92922539D01*
X51727011Y-92968294D01*
X51675500Y-92979500D01*
X50072129Y-92979500D01*
X50072123Y-92979501D01*
X50012516Y-92985908D01*
X49877671Y-93036202D01*
X49877664Y-93036206D01*
X49762455Y-93122452D01*
X49762452Y-93122455D01*
X49676206Y-93237664D01*
X49676202Y-93237671D01*
X49625910Y-93372513D01*
X49625909Y-93372517D01*
X49623087Y-93398758D01*
X49596351Y-93463306D01*
X49538959Y-93503154D01*
X49499799Y-93509500D01*
X48681836Y-93509500D01*
X48614797Y-93489815D01*
X48571352Y-93441796D01*
X48537814Y-93375976D01*
X48408247Y-93197641D01*
X48408243Y-93197636D01*
X48252363Y-93041756D01*
X48252358Y-93041752D01*
X48112745Y-92940318D01*
X48070079Y-92884989D01*
X48064100Y-92815375D01*
X48096705Y-92753580D01*
X48112745Y-92739682D01*
X48252358Y-92638247D01*
X48252356Y-92638247D01*
X48252365Y-92638242D01*
X48408242Y-92482365D01*
X48537815Y-92304022D01*
X48637895Y-92107606D01*
X48706015Y-91897951D01*
X48740500Y-91680222D01*
X48740500Y-91459778D01*
X48706015Y-91242049D01*
X48637895Y-91032394D01*
X48637895Y-91032393D01*
X48603237Y-90964375D01*
X48537815Y-90835978D01*
X48521260Y-90813192D01*
X48408247Y-90657641D01*
X48408243Y-90657636D01*
X48252363Y-90501756D01*
X48252358Y-90501752D01*
X48074025Y-90372187D01*
X48074024Y-90372186D01*
X48074022Y-90372185D01*
X48011096Y-90340122D01*
X47877606Y-90272104D01*
X47877603Y-90272103D01*
X47667952Y-90203985D01*
X47559086Y-90186742D01*
X47450222Y-90169500D01*
X47229778Y-90169500D01*
X47157201Y-90180995D01*
X47012047Y-90203985D01*
X46802396Y-90272103D01*
X46802393Y-90272104D01*
X46605974Y-90372187D01*
X46427641Y-90501752D01*
X46427636Y-90501756D01*
X46271756Y-90657636D01*
X46271752Y-90657641D01*
X46142187Y-90835974D01*
X46042104Y-91032393D01*
X46042103Y-91032396D01*
X45973985Y-91242047D01*
X45939500Y-91459778D01*
X33500500Y-91459778D01*
X33466015Y-91242049D01*
X33397895Y-91032394D01*
X33397895Y-91032393D01*
X33363237Y-90964375D01*
X33297815Y-90835978D01*
X33281260Y-90813192D01*
X33168247Y-90657641D01*
X33168243Y-90657636D01*
X33012363Y-90501756D01*
X33012358Y-90501752D01*
X32834025Y-90372187D01*
X32834024Y-90372186D01*
X32834022Y-90372185D01*
X32771096Y-90340122D01*
X32637606Y-90272104D01*
X32637603Y-90272103D01*
X32427952Y-90203985D01*
X32319086Y-90186742D01*
X32210222Y-90169500D01*
X31989778Y-90169500D01*
X31917201Y-90180995D01*
X31772047Y-90203985D01*
X31562396Y-90272103D01*
X31562393Y-90272104D01*
X31365974Y-90372187D01*
X31187641Y-90501752D01*
X31187636Y-90501756D01*
X31031756Y-90657636D01*
X31031752Y-90657641D01*
X30902187Y-90835974D01*
X30802104Y-91032393D01*
X30802103Y-91032396D01*
X30733985Y-91242047D01*
X30699500Y-91459778D01*
X30000500Y-91459778D01*
X30000500Y-83983019D01*
X31147500Y-83983019D01*
X31147500Y-85511870D01*
X31147501Y-85511876D01*
X31153908Y-85571483D01*
X31204202Y-85706328D01*
X31204206Y-85706335D01*
X31273358Y-85798709D01*
X31290454Y-85821546D01*
X31397811Y-85901914D01*
X31400548Y-85905569D01*
X31404703Y-85907467D01*
X31421293Y-85933281D01*
X31439682Y-85957847D01*
X31440697Y-85963476D01*
X31442477Y-85966245D01*
X31447500Y-86001180D01*
X31447500Y-86005323D01*
X31427815Y-86072362D01*
X31411181Y-86093004D01*
X31265121Y-86239063D01*
X31265110Y-86239076D01*
X31213135Y-86305982D01*
X31158061Y-86438946D01*
X31158059Y-86438953D01*
X31147500Y-86523019D01*
X31147500Y-88051870D01*
X31147501Y-88051876D01*
X31153908Y-88111483D01*
X31204202Y-88246328D01*
X31204206Y-88246335D01*
X31290452Y-88361544D01*
X31290455Y-88361547D01*
X31405664Y-88447793D01*
X31405671Y-88447797D01*
X31540517Y-88498091D01*
X31540516Y-88498091D01*
X31547444Y-88498835D01*
X31600127Y-88504500D01*
X33495872Y-88504499D01*
X33555483Y-88498091D01*
X33690331Y-88447796D01*
X33805546Y-88361546D01*
X33891796Y-88246331D01*
X33942091Y-88111483D01*
X33948500Y-88051873D01*
X33948499Y-86156128D01*
X33942091Y-86096517D01*
X33894982Y-85970212D01*
X33891797Y-85961671D01*
X33891796Y-85961669D01*
X33870545Y-85933281D01*
X33851851Y-85908310D01*
X33827435Y-85842847D01*
X33842286Y-85774574D01*
X33851852Y-85759689D01*
X33891796Y-85706331D01*
X33942091Y-85571483D01*
X33948500Y-85511873D01*
X33948499Y-83616128D01*
X33942091Y-83556517D01*
X33924409Y-83509110D01*
X33891797Y-83421671D01*
X33891793Y-83421664D01*
X33805547Y-83306455D01*
X33805544Y-83306452D01*
X33690335Y-83220206D01*
X33690328Y-83220202D01*
X33555482Y-83169908D01*
X33555483Y-83169908D01*
X33495883Y-83163501D01*
X33495881Y-83163500D01*
X33495873Y-83163500D01*
X33495864Y-83163500D01*
X31967029Y-83163500D01*
X31882950Y-83174060D01*
X31749984Y-83229136D01*
X31683065Y-83281121D01*
X31683058Y-83281127D01*
X31265121Y-83699063D01*
X31265110Y-83699076D01*
X31213135Y-83765982D01*
X31158061Y-83898946D01*
X31158059Y-83898953D01*
X31147500Y-83983019D01*
X30000500Y-83983019D01*
X30000500Y-73785818D01*
X31148000Y-73785818D01*
X31148000Y-74006181D01*
X31182473Y-74223835D01*
X31250567Y-74433410D01*
X31350611Y-74629756D01*
X31396932Y-74693513D01*
X32065037Y-74025408D01*
X32082075Y-74088993D01*
X32147901Y-74203007D01*
X32240993Y-74296099D01*
X32355007Y-74361925D01*
X32418590Y-74378962D01*
X31772534Y-75025016D01*
X31814728Y-75111760D01*
X31815593Y-75116889D01*
X31818771Y-75121010D01*
X31821345Y-75150986D01*
X31826351Y-75180656D01*
X31824304Y-75185441D01*
X31824750Y-75190624D01*
X31810710Y-75217232D01*
X31798880Y-75244899D01*
X31794573Y-75247817D01*
X31792145Y-75252419D01*
X31776105Y-75266317D01*
X31750485Y-75284930D01*
X31750485Y-75284932D01*
X32418590Y-75953037D01*
X32355007Y-75970075D01*
X32240993Y-76035901D01*
X32147901Y-76128993D01*
X32082075Y-76243007D01*
X32065037Y-76306590D01*
X31396932Y-75638485D01*
X31396931Y-75638485D01*
X31350616Y-75702233D01*
X31250567Y-75898589D01*
X31182473Y-76108164D01*
X31148000Y-76325818D01*
X31148000Y-76546181D01*
X31182473Y-76763835D01*
X31250567Y-76973410D01*
X31350611Y-77169756D01*
X31396932Y-77233513D01*
X32065037Y-76565408D01*
X32082075Y-76628993D01*
X32147901Y-76743007D01*
X32240993Y-76836099D01*
X32355007Y-76901925D01*
X32418590Y-76918962D01*
X31750485Y-77587065D01*
X31750485Y-77587066D01*
X31814243Y-77633388D01*
X32010589Y-77733432D01*
X32220164Y-77801526D01*
X32437819Y-77836000D01*
X32658181Y-77836000D01*
X32875835Y-77801526D01*
X33085410Y-77733432D01*
X33281760Y-77633386D01*
X33345513Y-77587066D01*
X33345514Y-77587066D01*
X32677409Y-76918962D01*
X32740993Y-76901925D01*
X32855007Y-76836099D01*
X32948099Y-76743007D01*
X33013925Y-76628993D01*
X33030962Y-76565409D01*
X33699066Y-77233514D01*
X33699066Y-77233513D01*
X33745386Y-77169760D01*
X33845432Y-76973410D01*
X33913526Y-76763835D01*
X33948000Y-76546181D01*
X33948000Y-76325818D01*
X33913526Y-76108164D01*
X33845432Y-75898589D01*
X33745388Y-75702243D01*
X33699066Y-75638485D01*
X33699065Y-75638485D01*
X33030962Y-76306589D01*
X33013925Y-76243007D01*
X32948099Y-76128993D01*
X32855007Y-76035901D01*
X32740993Y-75970075D01*
X32677407Y-75953037D01*
X33345513Y-75284932D01*
X33345513Y-75284931D01*
X33319893Y-75266317D01*
X33277227Y-75210987D01*
X33271248Y-75141374D01*
X33281270Y-75111759D01*
X33323463Y-75025015D01*
X32677409Y-74378962D01*
X32740993Y-74361925D01*
X32855007Y-74296099D01*
X32948099Y-74203007D01*
X33013925Y-74088993D01*
X33030962Y-74025409D01*
X33699066Y-74693514D01*
X33699066Y-74693513D01*
X33745386Y-74629760D01*
X33845432Y-74433410D01*
X33913526Y-74223835D01*
X33948000Y-74006181D01*
X33948000Y-73785818D01*
X49690000Y-73785818D01*
X49690000Y-74006181D01*
X49724473Y-74223835D01*
X49792567Y-74433410D01*
X49892611Y-74629756D01*
X49938932Y-74693513D01*
X50607037Y-74025408D01*
X50624075Y-74088993D01*
X50689901Y-74203007D01*
X50782993Y-74296099D01*
X50897007Y-74361925D01*
X50960590Y-74378962D01*
X50292485Y-75047065D01*
X50292485Y-75047067D01*
X50318105Y-75065681D01*
X50360771Y-75121010D01*
X50366750Y-75190624D01*
X50334145Y-75252419D01*
X50318105Y-75266317D01*
X50292485Y-75284930D01*
X50292485Y-75284932D01*
X50960590Y-75953037D01*
X50897007Y-75970075D01*
X50782993Y-76035901D01*
X50689901Y-76128993D01*
X50624075Y-76243007D01*
X50607037Y-76306590D01*
X49938932Y-75638485D01*
X49938931Y-75638485D01*
X49892616Y-75702233D01*
X49792567Y-75898589D01*
X49724473Y-76108164D01*
X49690000Y-76325818D01*
X49690000Y-76546181D01*
X49724473Y-76763835D01*
X49792567Y-76973410D01*
X49892611Y-77169756D01*
X49938932Y-77233513D01*
X50607037Y-76565408D01*
X50624075Y-76628993D01*
X50689901Y-76743007D01*
X50782993Y-76836099D01*
X50897007Y-76901925D01*
X50960590Y-76918962D01*
X50292485Y-77587065D01*
X50292485Y-77587066D01*
X50356243Y-77633388D01*
X50552589Y-77733432D01*
X50762164Y-77801526D01*
X50979819Y-77836000D01*
X51200181Y-77836000D01*
X51417835Y-77801526D01*
X51627410Y-77733432D01*
X51823760Y-77633386D01*
X51887513Y-77587066D01*
X51887514Y-77587066D01*
X51219409Y-76918962D01*
X51282993Y-76901925D01*
X51397007Y-76836099D01*
X51490099Y-76743007D01*
X51555925Y-76628993D01*
X51572962Y-76565410D01*
X52241066Y-77233514D01*
X52241066Y-77233513D01*
X52287386Y-77169760D01*
X52387432Y-76973410D01*
X52455526Y-76763835D01*
X52490000Y-76546181D01*
X52490000Y-76325818D01*
X52455526Y-76108164D01*
X52387432Y-75898589D01*
X52287388Y-75702243D01*
X52241066Y-75638485D01*
X52241065Y-75638485D01*
X51572962Y-76306589D01*
X51555925Y-76243007D01*
X51490099Y-76128993D01*
X51397007Y-76035901D01*
X51282993Y-75970075D01*
X51219407Y-75953037D01*
X51887513Y-75284932D01*
X51887513Y-75284931D01*
X51861893Y-75266317D01*
X51819227Y-75210987D01*
X51813248Y-75141374D01*
X51845854Y-75079579D01*
X51861893Y-75065680D01*
X51887513Y-75047065D01*
X51219409Y-74378962D01*
X51282993Y-74361925D01*
X51397007Y-74296099D01*
X51490099Y-74203007D01*
X51555925Y-74088993D01*
X51572962Y-74025410D01*
X52241066Y-74693514D01*
X52241066Y-74693513D01*
X52287386Y-74629760D01*
X52387432Y-74433410D01*
X52455526Y-74223835D01*
X52490000Y-74006181D01*
X52490000Y-73785818D01*
X52455526Y-73568164D01*
X52387432Y-73358589D01*
X52287388Y-73162243D01*
X52241066Y-73098485D01*
X52241065Y-73098485D01*
X51572962Y-73766589D01*
X51555925Y-73703007D01*
X51490099Y-73588993D01*
X51397007Y-73495901D01*
X51282993Y-73430075D01*
X51219407Y-73413037D01*
X51887513Y-72744932D01*
X51823756Y-72698611D01*
X51627410Y-72598567D01*
X51417835Y-72530473D01*
X51200181Y-72496000D01*
X50979819Y-72496000D01*
X50762164Y-72530473D01*
X50552589Y-72598567D01*
X50356233Y-72698616D01*
X50292485Y-72744931D01*
X50292485Y-72744932D01*
X50960590Y-73413037D01*
X50897007Y-73430075D01*
X50782993Y-73495901D01*
X50689901Y-73588993D01*
X50624075Y-73703007D01*
X50607037Y-73766590D01*
X49938932Y-73098485D01*
X49938931Y-73098485D01*
X49892616Y-73162233D01*
X49792567Y-73358589D01*
X49724473Y-73568164D01*
X49690000Y-73785818D01*
X33948000Y-73785818D01*
X33913526Y-73568164D01*
X33845432Y-73358589D01*
X33745388Y-73162243D01*
X33699066Y-73098485D01*
X33699065Y-73098485D01*
X33030962Y-73766589D01*
X33013925Y-73703007D01*
X32948099Y-73588993D01*
X32855007Y-73495901D01*
X32740993Y-73430075D01*
X32677407Y-73413037D01*
X33345513Y-72744932D01*
X33281756Y-72698611D01*
X33085410Y-72598567D01*
X32875835Y-72530473D01*
X32658181Y-72496000D01*
X32437819Y-72496000D01*
X32220164Y-72530473D01*
X32010589Y-72598567D01*
X31814233Y-72698616D01*
X31750485Y-72744931D01*
X31750485Y-72744932D01*
X32418590Y-73413037D01*
X32355007Y-73430075D01*
X32240993Y-73495901D01*
X32147901Y-73588993D01*
X32082075Y-73703007D01*
X32065037Y-73766590D01*
X31396932Y-73098485D01*
X31396931Y-73098485D01*
X31350616Y-73162233D01*
X31250567Y-73358589D01*
X31182473Y-73568164D01*
X31148000Y-73785818D01*
X30000500Y-73785818D01*
X30000500Y-71478427D01*
X30000816Y-71469581D01*
X30015130Y-71269443D01*
X30015131Y-71269434D01*
X30017646Y-71251938D01*
X30059356Y-71060200D01*
X30064335Y-71043242D01*
X30132911Y-70859382D01*
X30140251Y-70843310D01*
X30234294Y-70671083D01*
X30243850Y-70656214D01*
X30361443Y-70499128D01*
X30373017Y-70485771D01*
X30511771Y-70347017D01*
X30525128Y-70335443D01*
X30682214Y-70217850D01*
X30697083Y-70208294D01*
X30869310Y-70114251D01*
X30885382Y-70106911D01*
X31069242Y-70038335D01*
X31086200Y-70033356D01*
X31277938Y-69991646D01*
X31295436Y-69989130D01*
X31495582Y-69974816D01*
X31504428Y-69974500D01*
X31565892Y-69974500D01*
X52434108Y-69974500D01*
X52495572Y-69974500D01*
X52504418Y-69974816D01*
G37*
%TD.AperFunction*%
%TD*%
M02*
